<?xml version="1.0" encoding="utf-8"?>
<!-- Generated by Mocodo 4.3.2 -->
<svg width="1011" height="619" viewBox="0 0 1011 619" xmlns="http://www.w3.org/2000/svg">
<rect x="0" y="0" width="1011" height="619" fill="#f7f7f7" stroke="none" stroke-width="0"/>

<!-- Association TAGUER -->
<g class="page_0_aedc6222 diagram_page" visibility="visible">
	<line x1="318" y1="136" x2="175" y2="136" stroke="#d6604d" stroke-width="2"/>
	<line x1="55" y1="136" x2="175" y2="136" stroke="#d6604d" stroke-width="2"/>
	<g>
		<path d="M194 111 a14 14 90 0 1 14 14 V136 h-66 V125 a14 14 90 0 1 14 -14" fill="#f4a582" stroke="#f4a582" stroke-width="0"/>
		<path d="M208 136 v11 a14 14 90 0 1 -14 14 H156 a14 14 90 0 1 -14 -14 V136 H66" fill="#fddbc7" stroke="#fddbc7" stroke-width="0"/>
		<rect x="142" y="111" width="66" height="50" fill="none" rx="14" stroke="#d6604d" stroke-width="2"/>
		<line x1="142" y1="136" x2="208" y2="136" stroke="#d6604d" stroke-width="1"/>
		<text x="150" y="128.75" fill="#000000" font-family="Verdana" font-size="12">TAGUER</text>
	</g>
	<text x="245" y="128" fill="#2166ac" font-family="Verdana" font-size="12">0,N</text>
	<text x="106" y="153" fill="#2166ac" font-family="Verdana" font-size="12">0,N</text>
</g>

<!-- Association CONTENIR -->
<g class="page_0_aedc6222 diagram_page" visibility="visible">
	<line x1="318" y1="136" x2="458" y2="136" stroke="#d6604d" stroke-width="2"/>
	<line x1="591" y1="136" x2="458" y2="136" stroke="#d6604d" stroke-width="2"/>
	<g>
		<path d="M484 111 a14 14 90 0 1 14 14 V136 h-80 V125 a14 14 90 0 1 14 -14" fill="#f4a582" stroke="#f4a582" stroke-width="0"/>
		<path d="M498 136 v11 a14 14 90 0 1 -14 14 H432 a14 14 90 0 1 -14 -14 V136 H80" fill="#fddbc7" stroke="#fddbc7" stroke-width="0"/>
		<rect x="418" y="111" width="80" height="50" fill="none" rx="14" stroke="#d6604d" stroke-width="2"/>
		<line x1="418" y1="136" x2="498" y2="136" stroke="#d6604d" stroke-width="1"/>
		<text x="426" y="128.75" fill="#000000" font-family="Verdana" font-size="12">CONTENIR</text>
	</g>
	<text x="369" y="128" fill="#2166ac" font-family="Verdana" font-size="12">1,1</text>
	<text x="508" y="153" fill="#2166ac" font-family="Verdana" font-size="12">0,N</text>
</g>

<!-- Association CONCERNER -->
<g class="page_0_aedc6222 diagram_page" visibility="visible">
	<line x1="848" y1="136" x2="725" y2="136" stroke="#d6604d" stroke-width="2"/>
	<line x1="591" y1="136" x2="725" y2="136" stroke="#d6604d" stroke-width="2"/>
	<g>
		<path d="M757 111 a14 14 90 0 1 14 14 V136 h-92 V125 a14 14 90 0 1 14 -14" fill="#f4a582" stroke="#f4a582" stroke-width="0"/>
		<path d="M771 136 v11 a14 14 90 0 1 -14 14 H693 a14 14 90 0 1 -14 -14 V136 H92" fill="#fddbc7" stroke="#fddbc7" stroke-width="0"/>
		<rect x="679" y="111" width="92" height="50" fill="none" rx="14" stroke="#d6604d" stroke-width="2"/>
		<line x1="679" y1="136" x2="771" y2="136" stroke="#d6604d" stroke-width="1"/>
		<text x="687" y="128.75" fill="#000000" font-family="Verdana" font-size="12">CONCERNER</text>
	</g>
	<text x="781" y="128" fill="#2166ac" font-family="Verdana" font-size="12">1,N</text>
	<text x="652" y="153" fill="#2166ac" font-family="Verdana" font-size="12">0,N</text>
</g>

<!-- Association REPONDRE -->
<g class="page_0_aedc6222 diagram_page" visibility="visible">
	<path d="M848 136 C885 102.67 922.67 102.67 961 136" fill="none" stroke="#d6604d" stroke-width="2"/>
	<path d="M848 136 C884.33 169.33 922 169.33 961 136" fill="none" stroke="#d6604d" stroke-width="2"/>
	<g>
		<path d="M988 111 a14 14 90 0 1 14 14 V136 h-82 V125 a14 14 90 0 1 14 -14" fill="#f4a582" stroke="#f4a582" stroke-width="0"/>
		<path d="M1002 136 v11 a14 14 90 0 1 -14 14 H934 a14 14 90 0 1 -14 -14 V136 H82" fill="#fddbc7" stroke="#fddbc7" stroke-width="0"/>
		<rect x="920" y="111" width="82" height="50" fill="none" rx="14" stroke="#d6604d" stroke-width="2"/>
		<line x1="920" y1="136" x2="1002" y2="136" stroke="#d6604d" stroke-width="1"/>
		<text x="927" y="128.75" fill="#000000" font-family="Verdana" font-size="12">RÉPONDRE</text>
	</g>
	<text x="893" y="130" fill="#2166ac" font-family="Verdana" font-size="12" onmouseover="show_aedc6222(evt,'parent')" onmouseout="hide_aedc6222(evt)" style="cursor: pointer;">0,N</text>
	<text x="893" y="151" fill="#2166ac" font-family="Verdana" font-size="12" onmouseover="show_aedc6222(evt,'enfant')" onmouseout="hide_aedc6222(evt)" style="cursor: pointer;">0,1</text>
</g>

<!-- Association APPARTENIR -->
<g class="page_0_aedc6222 diagram_page" visibility="visible">
	<line x1="318" y1="136" x2="175" y2="322" stroke="#d6604d" stroke-width="2"/>
	<line x1="55" y1="322" x2="175" y2="322" stroke="#d6604d" stroke-width="2"/>
	<g>
		<path d="M207 297 a14 14 90 0 1 14 14 V322 h-92 V311 a14 14 90 0 1 14 -14" fill="#f4a582" stroke="#f4a582" stroke-width="0"/>
		<path d="M221 322 v11 a14 14 90 0 1 -14 14 H143 a14 14 90 0 1 -14 -14 V322 H92" fill="#fddbc7" stroke="#fddbc7" stroke-width="0"/>
		<rect x="129" y="297" width="92" height="50" fill="none" rx="14" stroke="#d6604d" stroke-width="2"/>
		<line x1="129" y1="322" x2="221" y2="322" stroke="#d6604d" stroke-width="1"/>
		<text x="136" y="314.75" fill="#000000" font-family="Verdana" font-size="12">APPARTENIR</text>
	</g>
	<text x="245" y="193.61" fill="#2166ac" font-family="Verdana" font-size="12">0,N</text>
	<text x="102" y="339" fill="#2166ac" font-family="Verdana" font-size="12">0,N</text>
</g>

<!-- Association AJOUTER_A_LISTE -->
<g class="page_0_aedc6222 diagram_page" visibility="visible">
	<line x1="318" y1="491" x2="318" y2="322" stroke="#d6604d" stroke-width="2"/>
	<line x1="318" y1="136" x2="318" y2="322" stroke="#d6604d" stroke-width="2"/>
	<g>
		<path d="M369 288 a14 14 90 0 1 14 14 V313 h-130 V302 a14 14 90 0 1 14 -14" fill="#f4a582" stroke="#f4a582" stroke-width="0"/>
		<path d="M383 313 v29 a14 14 90 0 1 -14 14 H267 a14 14 90 0 1 -14 -14 V313 H130" fill="#fddbc7" stroke="#fddbc7" stroke-width="0"/>
		<rect x="253" y="288" width="130" height="68" fill="none" rx="14" stroke="#d6604d" stroke-width="2"/>
		<line x1="253" y1="313" x2="383" y2="313" stroke="#d6604d" stroke-width="1"/>
		<text x="261" y="305.75" fill="#000000" font-family="Verdana" font-size="12">AJOUTER_À_LISTE</text>
		<text x="260" y="330.8" fill="#000000" font-family="Verdana" font-size="12">added_at</text>
		<text x="260" y="347.8" fill="#000000" font-family="Verdana" font-size="12">position</text>
	</g>
	<text x="323" y="415" fill="#2166ac" font-family="Verdana" font-size="12">0,N</text>
	<text x="323" y="280" fill="#2166ac" font-family="Verdana" font-size="12">0,N</text>
</g>

<!-- Association FAVORISER -->
<g class="page_0_aedc6222 diagram_page" visibility="visible">
	<line x1="591" y1="491" x2="458" y2="322" stroke="#d6604d" stroke-width="2"/>
	<line x1="318" y1="136" x2="458" y2="322" stroke="#d6604d" stroke-width="2"/>
	<g>
		<path d="M487 297 a14 14 90 0 1 14 14 V322 h-86 V311 a14 14 90 0 1 14 -14" fill="#f4a582" stroke="#f4a582" stroke-width="0"/>
		<path d="M501 322 v11 a14 14 90 0 1 -14 14 H429 a14 14 90 0 1 -14 -14 V322 H86" fill="#fddbc7" stroke="#fddbc7" stroke-width="0"/>
		<rect x="415" y="297" width="86" height="50" fill="none" rx="14" stroke="#d6604d" stroke-width="2"/>
		<line x1="415" y1="322" x2="501" y2="322" stroke="#d6604d" stroke-width="1"/>
		<text x="423" y="314.75" fill="#000000" font-family="Verdana" font-size="12">FAVORISER</text>
		<text x="422" y="339.8" fill="#000000" font-family="Verdana" font-size="12">created_at</text>
	</g>
	<text x="512" y="436.04" fill="#2166ac" font-family="Verdana" font-size="12">0,N</text>
	<text x="369" y="194.79" fill="#2166ac" font-family="Verdana" font-size="12">0,N</text>
</g>

<!-- Association ECRIRE -->
<g class="page_0_aedc6222 diagram_page" visibility="visible">
	<line x1="591" y1="491" x2="591" y2="322" stroke="#d6604d" stroke-width="2"/>
	<line x1="318" y1="136" x2="591" y2="322" stroke="#d6604d" stroke-width="2"/>
	<g>
		<path d="M607 297 a14 14 90 0 1 14 14 V322 h-60 V311 a14 14 90 0 1 14 -14" fill="#f4a582" stroke="#f4a582" stroke-width="0"/>
		<path d="M621 322 v11 a14 14 90 0 1 -14 14 H575 a14 14 90 0 1 -14 -14 V322 H60" fill="#fddbc7" stroke="#fddbc7" stroke-width="0"/>
		<rect x="561" y="297" width="60" height="50" fill="none" rx="14" stroke="#d6604d" stroke-width="2"/>
		<line x1="561" y1="322" x2="621" y2="322" stroke="#d6604d" stroke-width="1"/>
		<text x="568" y="314.75" fill="#000000" font-family="Verdana" font-size="12">ÉCRIRE</text>
	</g>
	<text x="596" y="364" fill="#2166ac" font-family="Verdana" font-size="12">1,N</text>
	<text x="369" y="164.55" fill="#2166ac" font-family="Verdana" font-size="12">0,1</text>
</g>

<!-- Association COMMENTER -->
<g class="page_0_aedc6222 diagram_page" visibility="visible">
	<line x1="591" y1="491" x2="725" y2="322" stroke="#d6604d" stroke-width="2"/>
	<line x1="848" y1="136" x2="725" y2="322" stroke="#d6604d" stroke-width="2"/>
	<g>
		<path d="M758 297 a14 14 90 0 1 14 14 V322 h-94 V311 a14 14 90 0 1 14 -14" fill="#f4a582" stroke="#f4a582" stroke-width="0"/>
		<path d="M772 322 v11 a14 14 90 0 1 -14 14 H692 a14 14 90 0 1 -14 -14 V322 H94" fill="#fddbc7" stroke="#fddbc7" stroke-width="0"/>
		<rect x="678" y="297" width="94" height="50" fill="none" rx="14" stroke="#d6604d" stroke-width="2"/>
		<line x1="678" y1="322" x2="772" y2="322" stroke="#d6604d" stroke-width="1"/>
		<text x="686" y="314.75" fill="#000000" font-family="Verdana" font-size="12">COMMENTER</text>
	</g>
	<text x="648" y="436.49" fill="#2166ac" font-family="Verdana" font-size="12">1,N</text>
	<text x="782" y="193.56" fill="#2166ac" font-family="Verdana" font-size="12">0,1</text>
</g>

<!-- Association RECEVOIR -->
<g class="page_0_aedc6222 diagram_page" visibility="visible">
	<line x1="591" y1="491" x2="848" y2="322" stroke="#d6604d" stroke-width="2"/>
	<line x1="848" y1="491" x2="848" y2="322" stroke="#d6604d" stroke-width="2"/>
	<g>
		<path d="M873 297 a14 14 90 0 1 14 14 V322 h-78 V311 a14 14 90 0 1 14 -14" fill="#f4a582" stroke="#f4a582" stroke-width="0"/>
		<path d="M887 322 v11 a14 14 90 0 1 -14 14 H823 a14 14 90 0 1 -14 -14 V322 H78" fill="#fddbc7" stroke="#fddbc7" stroke-width="0"/>
		<rect x="809" y="297" width="78" height="50" fill="none" rx="14" stroke="#d6604d" stroke-width="2"/>
		<line x1="809" y1="322" x2="887" y2="322" stroke="#d6604d" stroke-width="1"/>
		<text x="816" y="314.75" fill="#000000" font-family="Verdana" font-size="12">RECEVOIR</text>
	</g>
	<text x="648" y="468.76" fill="#2166ac" font-family="Verdana" font-size="12">1,N</text>
	<text x="853" y="415" fill="#2166ac" font-family="Verdana" font-size="12">0,1</text>
</g>

<!-- Association CREER_LISTE -->
<g class="page_0_aedc6222 diagram_page" visibility="visible">
	<line x1="591" y1="491" x2="458" y2="491" stroke="#d6604d" stroke-width="2"/>
	<line x1="318" y1="491" x2="458" y2="491" stroke="#d6604d" stroke-width="2"/>
	<g>
		<path d="M493 466 a14 14 90 0 1 14 14 V491 h-98 V480 a14 14 90 0 1 14 -14" fill="#f4a582" stroke="#f4a582" stroke-width="0"/>
		<path d="M507 491 v11 a14 14 90 0 1 -14 14 H423 a14 14 90 0 1 -14 -14 V491 H98" fill="#fddbc7" stroke="#fddbc7" stroke-width="0"/>
		<rect x="409" y="466" width="98" height="50" fill="none" rx="14" stroke="#d6604d" stroke-width="2"/>
		<line x1="409" y1="491" x2="507" y2="491" stroke="#d6604d" stroke-width="1"/>
		<text x="416" y="483.75" fill="#000000" font-family="Verdana" font-size="12">CRÉER_LISTE</text>
	</g>
	<text x="512" y="508" fill="#2166ac" font-family="Verdana" font-size="12">1,N</text>
	<text x="375" y="508" fill="#2166ac" font-family="Verdana" font-size="12">0,1</text>
</g>

<!-- Association SUIVRE -->
<g class="page_0_aedc6222 diagram_page" visibility="visible">
	<path d="M591 491 C637 457.67 681.67 457.67 725 491" fill="none" stroke="#d6604d" stroke-width="2"/>
	<path d="M591 491 C637 524.33 681.67 524.33 725 491" fill="none" stroke="#d6604d" stroke-width="2"/>
	<g>
		<path d="M751 466 a14 14 90 0 1 14 14 V491 h-80 V480 a14 14 90 0 1 14 -14" fill="#f4a582" stroke="#f4a582" stroke-width="0"/>
		<path d="M765 491 v11 a14 14 90 0 1 -14 14 H699 a14 14 90 0 1 -14 -14 V491 H80" fill="#fddbc7" stroke="#fddbc7" stroke-width="0"/>
		<rect x="685" y="466" width="80" height="50" fill="none" rx="14" stroke="#d6604d" stroke-width="2"/>
		<line x1="685" y1="491" x2="765" y2="491" stroke="#d6604d" stroke-width="1"/>
		<text x="702" y="483.75" fill="#000000" font-family="Verdana" font-size="12">SUIVRE</text>
		<text x="692" y="508.8" fill="#000000" font-family="Verdana" font-size="12">created_at</text>
	</g>
	<text x="648" y="484" fill="#2166ac" font-family="Verdana" font-size="12" onmouseover="show_aedc6222(evt,'follower')" onmouseout="hide_aedc6222(evt)" style="cursor: pointer;">0,N</text>
	<text x="648" y="507" fill="#2166ac" font-family="Verdana" font-size="12" onmouseover="show_aedc6222(evt,'followed')" onmouseout="hide_aedc6222(evt)" style="cursor: pointer;">0,N</text>
</g>

<!-- Entity TAG -->
<g class="page_0_aedc6222 diagram_page" visibility="visible">
	<g>
		<rect x="9" y="60" width="92" height="25" fill="#92c5de" stroke="none" stroke-width="0" opacity="1"/>
		<rect x="9" y="85" width="92" height="127" fill="#d1e5f0" stroke="none" stroke-width="0" opacity="1"/>
		<rect x="9" y="60" width="92" height="152" fill="none" stroke="#4393c3" stroke-width="2" opacity="1"/>
		<line x1="9" y1="85" x2="101" y2="85" stroke="#4393c3" stroke-width="1"/>
	</g>
	<text x="42" y="77.75" fill="#000000" font-family="Verdana" font-size="12">TAG</text>
	<text x="14" y="102.8" fill="#000000" font-family="Verdana" font-size="12">id</text>
	<line x1="14" y1="105" x2="26" y2="105" stroke="#000000" stroke-width="1"/>
	<text x="14" y="119.8" fill="#000000" font-family="Verdana" font-size="12">name</text>
	<text x="14" y="136.8" fill="#000000" font-family="Verdana" font-size="12">description</text>
	<text x="14" y="153.8" fill="#000000" font-family="Verdana" font-size="12">type</text>
	<text x="14" y="170.8" fill="#000000" font-family="Verdana" font-size="12">is_predefined</text>
	<text x="14" y="187.8" fill="#000000" font-family="Verdana" font-size="12">created_at</text>
	<text x="14" y="204.8" fill="#000000" font-family="Verdana" font-size="12">usage_count</text>
</g>

<!-- Entity STORY -->
<g class="page_0_aedc6222 diagram_page" visibility="visible">
	<g>
		<rect x="272" y="9" width="92" height="25" fill="#92c5de" stroke="none" stroke-width="0" opacity="1"/>
		<rect x="272" y="34" width="92" height="229" fill="#d1e5f0" stroke="none" stroke-width="0" opacity="1"/>
		<rect x="272" y="9" width="92" height="254" fill="none" stroke="#4393c3" stroke-width="2" opacity="1"/>
		<line x1="272" y1="34" x2="364" y2="34" stroke="#4393c3" stroke-width="1"/>
	</g>
	<text x="297" y="26.75" fill="#000000" font-family="Verdana" font-size="12">STORY</text>
	<text x="277" y="51.8" fill="#000000" font-family="Verdana" font-size="12">id</text>
	<line x1="277" y1="54" x2="289" y2="54" stroke="#000000" stroke-width="1"/>
	<text x="277" y="68.8" fill="#000000" font-family="Verdana" font-size="12">title</text>
	<text x="277" y="85.8" fill="#000000" font-family="Verdana" font-size="12">summary</text>
	<text x="277" y="102.8" fill="#000000" font-family="Verdana" font-size="12">content</text>
	<text x="277" y="119.8" fill="#000000" font-family="Verdana" font-size="12">status</text>
	<text x="277" y="136.8" fill="#000000" font-family="Verdana" font-size="12">is_completed</text>
	<text x="277" y="153.8" fill="#000000" font-family="Verdana" font-size="12">view_count</text>
	<text x="277" y="170.8" fill="#000000" font-family="Verdana" font-size="12">created_at</text>
	<text x="277" y="187.8" fill="#000000" font-family="Verdana" font-size="12">updated_at</text>
	<text x="277" y="204.8" fill="#000000" font-family="Verdana" font-size="12">published_at</text>
	<text x="277" y="221.8" fill="#000000" font-family="Verdana" font-size="12">is_published</text>
	<text x="277" y="238.8" fill="#000000" font-family="Verdana" font-size="12">language</text>
	<text x="277" y="255.8" fill="#000000" font-family="Verdana" font-size="12">rating</text>
</g>

<!-- Entity CHAPTER -->
<g class="page_0_aedc6222 diagram_page" visibility="visible">
	<g>
		<rect x="535" y="34" width="112" height="25" fill="#92c5de" stroke="none" stroke-width="0" opacity="1"/>
		<rect x="535" y="59" width="112" height="179" fill="#d1e5f0" stroke="none" stroke-width="0" opacity="1"/>
		<rect x="535" y="34" width="112" height="204" fill="none" stroke="#4393c3" stroke-width="2" opacity="1"/>
		<line x1="535" y1="59" x2="647" y2="59" stroke="#4393c3" stroke-width="1"/>
	</g>
	<text x="563" y="51.75" fill="#000000" font-family="Verdana" font-size="12">CHAPTER</text>
	<text x="540" y="76.8" fill="#000000" font-family="Verdana" font-size="12">id</text>
	<line x1="540" y1="79" x2="552" y2="79" stroke="#000000" stroke-width="1"/>
	<text x="540" y="93.8" fill="#000000" font-family="Verdana" font-size="12">title</text>
	<text x="540" y="110.8" fill="#000000" font-family="Verdana" font-size="12">content</text>
	<text x="540" y="127.8" fill="#000000" font-family="Verdana" font-size="12">chapter_number</text>
	<text x="540" y="144.8" fill="#000000" font-family="Verdana" font-size="12">word_count</text>
	<text x="540" y="161.8" fill="#000000" font-family="Verdana" font-size="12">created_at</text>
	<text x="540" y="178.8" fill="#000000" font-family="Verdana" font-size="12">updated_at</text>
	<text x="540" y="195.8" fill="#000000" font-family="Verdana" font-size="12">published_at</text>
	<text x="540" y="212.8" fill="#000000" font-family="Verdana" font-size="12">is_published</text>
	<text x="540" y="229.8" fill="#000000" font-family="Verdana" font-size="12">author_note</text>
</g>

<!-- Entity COMMENT -->
<g class="page_0_aedc6222 diagram_page" visibility="visible">
	<g>
		<rect x="808" y="68" width="80" height="25" fill="#92c5de" stroke="none" stroke-width="0" opacity="1"/>
		<rect x="808" y="93" width="80" height="111" fill="#d1e5f0" stroke="none" stroke-width="0" opacity="1"/>
		<rect x="808" y="68" width="80" height="136" fill="none" stroke="#4393c3" stroke-width="2" opacity="1"/>
		<line x1="808" y1="93" x2="888" y2="93" stroke="#4393c3" stroke-width="1"/>
	</g>
	<text x="817" y="85.75" fill="#000000" font-family="Verdana" font-size="12">COMMENT</text>
	<text x="813" y="110.8" fill="#000000" font-family="Verdana" font-size="12">id</text>
	<line x1="813" y1="113" x2="825" y2="113" stroke="#000000" stroke-width="1"/>
	<text x="813" y="127.8" fill="#000000" font-family="Verdana" font-size="12">content</text>
	<text x="813" y="144.8" fill="#000000" font-family="Verdana" font-size="12">created_at</text>
	<text x="813" y="161.8" fill="#000000" font-family="Verdana" font-size="12">updated_at</text>
	<text x="813" y="178.8" fill="#000000" font-family="Verdana" font-size="12">is_edited</text>
	<text x="813" y="195.8" fill="#000000" font-family="Verdana" font-size="12">is_deleted</text>
</g>

<!-- Entity FANDOM -->
<g class="page_0_aedc6222 diagram_page" visibility="visible">
	<g>
		<rect x="13" y="254" width="84" height="25" fill="#92c5de" stroke="none" stroke-width="0" opacity="1"/>
		<rect x="13" y="279" width="84" height="111" fill="#d1e5f0" stroke="none" stroke-width="0" opacity="1"/>
		<rect x="13" y="254" width="84" height="136" fill="none" stroke="#4393c3" stroke-width="2" opacity="1"/>
		<line x1="13" y1="279" x2="97" y2="279" stroke="#4393c3" stroke-width="1"/>
	</g>
	<text x="28" y="271.75" fill="#000000" font-family="Verdana" font-size="12">FANDOM</text>
	<text x="18" y="296.8" fill="#000000" font-family="Verdana" font-size="12">id</text>
	<line x1="18" y1="299" x2="30" y2="299" stroke="#000000" stroke-width="1"/>
	<text x="18" y="313.8" fill="#000000" font-family="Verdana" font-size="12">name</text>
	<text x="18" y="330.8" fill="#000000" font-family="Verdana" font-size="12">description</text>
	<text x="18" y="347.8" fill="#000000" font-family="Verdana" font-size="12">image_url</text>
	<text x="18" y="364.8" fill="#000000" font-family="Verdana" font-size="12">created_at</text>
	<text x="18" y="381.8" fill="#000000" font-family="Verdana" font-size="12">story_count</text>
</g>

<!-- Entity READING_LIST -->
<g class="page_0_aedc6222 diagram_page" visibility="visible">
	<g>
		<rect x="266" y="423" width="104" height="25" fill="#92c5de" stroke="none" stroke-width="0" opacity="1"/>
		<rect x="266" y="448" width="104" height="111" fill="#d1e5f0" stroke="none" stroke-width="0" opacity="1"/>
		<rect x="266" y="423" width="104" height="136" fill="none" stroke="#4393c3" stroke-width="2" opacity="1"/>
		<line x1="266" y1="448" x2="370" y2="448" stroke="#4393c3" stroke-width="1"/>
	</g>
	<text x="272" y="440.75" fill="#000000" font-family="Verdana" font-size="12">READING_LIST</text>
	<text x="271" y="465.8" fill="#000000" font-family="Verdana" font-size="12">id</text>
	<line x1="271" y1="468" x2="283" y2="468" stroke="#000000" stroke-width="1"/>
	<text x="271" y="482.8" fill="#000000" font-family="Verdana" font-size="12">name</text>
	<text x="271" y="499.8" fill="#000000" font-family="Verdana" font-size="12">description</text>
	<text x="271" y="516.8" fill="#000000" font-family="Verdana" font-size="12">is_public</text>
	<text x="271" y="533.8" fill="#000000" font-family="Verdana" font-size="12">created_at</text>
	<text x="271" y="550.8" fill="#000000" font-family="Verdana" font-size="12">updated_at</text>
</g>

<!-- Entity USER -->
<g class="page_0_aedc6222 diagram_page" visibility="visible">
	<g>
		<rect x="539" y="372" width="104" height="25" fill="#92c5de" stroke="none" stroke-width="0" opacity="1"/>
		<rect x="539" y="397" width="104" height="213" fill="#d1e5f0" stroke="none" stroke-width="0" opacity="1"/>
		<rect x="539" y="372" width="104" height="238" fill="none" stroke="#4393c3" stroke-width="2" opacity="1"/>
		<line x1="539" y1="397" x2="643" y2="397" stroke="#4393c3" stroke-width="1"/>
	</g>
	<text x="574" y="389.75" fill="#000000" font-family="Verdana" font-size="12">USER</text>
	<text x="544" y="414.8" fill="#000000" font-family="Verdana" font-size="12">id</text>
	<line x1="544" y1="417" x2="556" y2="417" stroke="#000000" stroke-width="1"/>
	<text x="544" y="431.8" fill="#000000" font-family="Verdana" font-size="12">username</text>
	<text x="544" y="448.8" fill="#000000" font-family="Verdana" font-size="12">email</text>
	<text x="544" y="465.8" fill="#000000" font-family="Verdana" font-size="12">password_hash</text>
	<text x="544" y="482.8" fill="#000000" font-family="Verdana" font-size="12">first_name</text>
	<text x="544" y="499.8" fill="#000000" font-family="Verdana" font-size="12">last_name</text>
	<text x="544" y="516.8" fill="#000000" font-family="Verdana" font-size="12">bio</text>
	<text x="544" y="533.8" fill="#000000" font-family="Verdana" font-size="12">avatar_url</text>
	<text x="544" y="550.8" fill="#000000" font-family="Verdana" font-size="12">created_at</text>
	<text x="544" y="567.8" fill="#000000" font-family="Verdana" font-size="12">updated_at</text>
	<text x="544" y="584.8" fill="#000000" font-family="Verdana" font-size="12">is_active</text>
	<text x="544" y="601.8" fill="#000000" font-family="Verdana" font-size="12">last_login</text>
</g>

<!-- Entity NOTIFICATION -->
<g class="page_0_aedc6222 diagram_page" visibility="visible">
	<g>
		<rect x="797" y="423" width="102" height="25" fill="#92c5de" stroke="none" stroke-width="0" opacity="1"/>
		<rect x="797" y="448" width="102" height="111" fill="#d1e5f0" stroke="none" stroke-width="0" opacity="1"/>
		<rect x="797" y="423" width="102" height="136" fill="none" stroke="#4393c3" stroke-width="2" opacity="1"/>
		<line x1="797" y1="448" x2="899" y2="448" stroke="#4393c3" stroke-width="1"/>
	</g>
	<text x="803" y="440.75" fill="#000000" font-family="Verdana" font-size="12">NOTIFICATION</text>
	<text x="802" y="465.8" fill="#000000" font-family="Verdana" font-size="12">id</text>
	<line x1="802" y1="468" x2="814" y2="468" stroke="#000000" stroke-width="1"/>
	<text x="802" y="482.8" fill="#000000" font-family="Verdana" font-size="12">type</text>
	<text x="802" y="499.8" fill="#000000" font-family="Verdana" font-size="12">message</text>
	<text x="802" y="516.8" fill="#000000" font-family="Verdana" font-size="12">data</text>
	<text x="802" y="533.8" fill="#000000" font-family="Verdana" font-size="12">is_read</text>
	<text x="802" y="550.8" fill="#000000" font-family="Verdana" font-size="12">created_at</text>
</g>

<!-- Notes -->
<script type="text/ecmascript">
<![CDATA[
	function show_aedc6222(evt, text) {
		var pos = (evt.target.getAttribute("y") < 574) ? "bottom" : "top";
		var note = document.getElementById(pos + "_note_aedc6222");
		note.textContent = text;
		note.setAttributeNS(null, "visibility", "visible");
		document.getElementById(pos + "_overlay_aedc6222").setAttributeNS(null, "visibility", "visible");
	}
	function hide_aedc6222(evt) {
		document.getElementById("top_note_aedc6222").setAttributeNS(null, "visibility", "hidden");
		document.getElementById("top_overlay_aedc6222").setAttributeNS(null, "visibility", "hidden");
		document.getElementById("bottom_note_aedc6222").setAttributeNS(null, "visibility", "hidden");
		document.getElementById("bottom_overlay_aedc6222").setAttributeNS(null, "visibility", "hidden");
	}
]]>
</script>
<rect id="top_overlay_aedc6222" x="0" y="0" width="100%" height="40" fill="#b2182b" stroke-width="0" opacity="0.9" visibility="hidden"/>
<text id="top_note_aedc6222" text-anchor="middle" x="505" y="24" fill="#f7f7f7" font-family="Verdana" font-size="14" visibility="hidden"></text>
<rect id="bottom_overlay_aedc6222" x="0" y="579" width="100%" height="40" fill="#b2182b" stroke-width="0" opacity="0.9" visibility="hidden"/>
<text id="bottom_note_aedc6222" text-anchor="middle" x="505" y="603" fill="#f7f7f7" font-family="Verdana" font-size="14" visibility="hidden"></text>
</svg>